<svg width="16" height="16" viewBox="0 0 16 16" fill="none" xmlns="http://www.w3.org/2000/svg"><path fill-rule="evenodd" clip-rule="evenodd" d="M12.1919 9.80474c.2603.26036.6824.26036.9428 0 .2603-.26035.2603-.68246 0-.94281L8.47435 4.20158a.74088.74088 0 0 0-.00624-.00632c-.1307-.13069-.30215-.19578-.47345-.19526-.16996.0005-.33977.06559-.46944.19526a.61255.61255 0 0 0-.00621.00629L2.85863 8.86193c-.26035.26035-.26035.68246 0 .94281.26035.26036.68246.26036.94281 0l4.19522-4.19522 4.19524 4.19522Z" fill="#FCFCFC"/></svg>